<?xml version="1.0" encoding="utf-8"?>
<!-- Generator: Adobe Illustrator 18.1.1, SVG Export Plug-In . SVG Version: 6.00 Build 0)  -->
<svg version="1.1" id="Layer_1" xmlns="http://www.w3.org/2000/svg" xmlns:xlink="http://www.w3.org/1999/xlink" x="0px" y="0px"
	 viewBox="0 0 24.2 19.9" enable-background="new 0 0 24.2 19.9" xml:space="preserve">
<g>
	<g>
		<path fill="#163C47" d="M10,12.9c0.6,0,1.2-0.2,1.7-0.5c0.6-0.4,1.3-0.7,2-0.7c-0.3-0.5-0.4-1.1-0.4-1.7c0-0.6,0.2-1.3,0.4-1.8
			c-0.8,0-1.5-0.2-2.1-0.7C11.1,7.2,10.6,7,10,7C8.8,7,7.9,7.6,7.4,8.5C7.3,9,7.2,9.5,7.2,10c0,0.5,0,1,0.1,1.4
			C7.9,12.3,8.8,12.9,10,12.9z"/>
		<path fill="#163C47" d="M16.1,0.9c1.7,1.1,2.2,3.4,1.3,5.1c0.7,0,1.4,0.2,2,0.7c1.4,0.9,3.3,0.6,4.2-0.8c0.9-1.4,0.6-3.3-0.8-4.2
			C21.1,0.6,19.2,0,17.2,0c-0.8,0-1.5,0.1-2.3,0.3C15.3,0.5,15.7,0.7,16.1,0.9z"/>
		<path fill="#163C47" d="M23.7,13.9c-1-1.4-2.8-1.7-4.2-0.7c-0.6,0.4-1.3,0.6-2,0.7c0.4,0.8,0.5,1.6,0.4,2.5c-0.2,1-0.8,2-1.6,2.6
			c-0.4,0.3-0.8,0.5-1.3,0.8c0.7,0.2,1.5,0.3,2.3,0.3c2.1,0,4-0.6,5.7-1.8C24.3,17.2,24.6,15.3,23.7,13.9z"/>
	</g>
	<path fill="#163C47" d="M10,19.9c-5.5,0-10-4.5-10-10C0,4.5,4.5,0,10,0c2,0,3.9,0.6,5.6,1.7c1.4,0.9,1.7,2.8,0.8,4.2
		c-0.9,1.4-2.8,1.7-4.2,0.8C11.5,6.3,10.8,6,10,6C7.8,6,6,7.8,6,10c0,2.2,1.8,3.9,3.9,3.9c0.8,0,1.6-0.2,2.3-0.7
		c1.4-1,3.2-0.6,4.2,0.7c1,1.4,0.6,3.2-0.7,4.2C14,19.3,12,19.9,10,19.9z"/>
</g>
</svg>
