<?xml version="1.0" encoding="utf-8"?>
<!-- Generator: Adobe Illustrator 18.1.1, SVG Export Plug-In . SVG Version: 6.00 Build 0)  -->
<svg version="1.1" id="Layer_1" xmlns="http://www.w3.org/2000/svg" xmlns:xlink="http://www.w3.org/1999/xlink" x="0px" y="0px"
	 viewBox="0 0 28.8 16.1" enable-background="new 0 0 28.8 16.1" xml:space="preserve">
<g>
	<g>
		<path fill="#163C47" d="M6.7,16.1c-0.3,0-0.5-0.1-0.7-0.3L0,9.9c-0.4-0.4-0.4-1,0-1.4c0.4-0.4,1-0.4,1.4,0l5.9,5.9
			c0.4,0.4,0.4,1,0,1.4C7.2,16,6.9,16.1,6.7,16.1z"/>
		<path fill="#163C47" d="M6.7,16.1c-0.3,0-0.5-0.1-0.7-0.3c-0.4-0.4-0.4-1,0-1.4L20.1,0.3c0.4-0.4,1-0.4,1.4,0c0.4,0.4,0.4,1,0,1.4
			L7.4,15.8C7.2,16,6.9,16.1,6.7,16.1z"/>
	</g>
</g>
<g>
	<path fill="#163C47" d="M7.7,10.6l1.4-1.4L8.4,8.5C8,8.1,7.4,8.1,7,8.5c-0.4,0.4-0.4,1,0,1.4L7.7,10.6z"/>
	<path fill="#163C47" d="M28.5,0.3c-0.4-0.4-1-0.4-1.4,0L13.7,13.7l-1-1l-1.4,1.4l1.7,1.7c0.2,0.2,0.5,0.3,0.7,0.3s0.5-0.1,0.7-0.3
		L28.5,1.7C28.9,1.3,28.9,0.7,28.5,0.3z"/>
</g>
</svg>
