<?xml version="1.0" encoding="utf-8"?>
<!-- Generator: Adobe Illustrator 18.1.1, SVG Export Plug-In . SVG Version: 6.00 Build 0)  -->
<svg version="1.1" id="Layer_1" xmlns="http://www.w3.org/2000/svg" xmlns:xlink="http://www.w3.org/1999/xlink" x="0px" y="0px"
	 viewBox="0 0 172.5 146" enable-background="new 0 0 172.5 146" xml:space="preserve">
<g>
	<path fill="none" stroke="#163C47" stroke-width="3" stroke-linecap="round" stroke-miterlimit="1" d="M67.6,143.7
		c0,0,5.5-5.2,6.9-5c1.4,0.2,5.1,0.6,5.6,0c0.6-0.6,2.5-4.3,1.8-8.6c-0.8-4.3-3.2-19.6-12-24.2c0,0-11.4,1.8-16,0.6"/>
	<path fill="none" stroke="#163C47" stroke-width="3" stroke-linecap="round" stroke-miterlimit="1" d="M73.8,143.7
		c0,0,1.3-0.6,2.6-0.5c1.3,0.1,2.6,1.2,3.6,1c0.9-0.1,4.6,0.6,6.4,0.1c1-0.3,3.8-1.1,5.7-1.4c1.7-0.3,2.4-0.1,2.8,0.1
		c0.8,0.5,3.6,0.7,4.1-0.1s5.4-0.5,5.8,0c0.4,0.5,9.3,1.9,11.1,1.2c1.8-0.7,4.9-0.3,5.3-0.1c0.4,0.2-0.8-3-4.7-4.4
		c-3.9-1.4-3.9-4.4-4.2-4.6c-0.2-0.2-3.4-2.9-5.6-3.1c-2.2-0.2-4.3-5.6-4.2-7.2c0.1-1.6-3.8-6.9-6.2-8.5c-2.4-1.6-5.8-8.2-6.6-11
		c-0.8-2.8-1.8-8.4-1.6-9.2"/>
	<g>
		<path fill="#163C47" d="M91.3,120.9c0,0,0.5,1.3,1.1,3.3c0.3,1,0.6,2.2,0.9,3.5c0.3,1.3,0.5,2.7,0.7,4.1c0.2,1.4,0.3,2.8,0.4,4.2
			c0,0.7,0,1.3,0,2c0,0.6-0.1,1.2-0.1,1.8c-0.1,0.6-0.2,1.1-0.2,1.5c-0.1,0.5-0.2,0.8-0.3,1.2c-0.2,0.7-0.3,1-0.3,1l-2.8-1.1
			c0,0,0.1-0.3,0.3-0.8c0.1-0.3,0.3-0.6,0.4-0.9c0.1-0.4,0.2-0.8,0.4-1.3c0.1-0.5,0.2-1,0.3-1.6c0.1-0.6,0.2-1.2,0.2-1.8
			c0.1-1.3,0.2-2.6,0.2-4c0-1.4-0.1-2.8-0.2-4.1c-0.1-1.3-0.3-2.5-0.4-3.6C91.6,122.3,91.3,120.9,91.3,120.9z"/>
	</g>
	<g>
		<path fill="#163C47" d="M96.6,125.7c0,0,1,4.3,1.6,8.7c0.1,1.1,0.3,2.2,0.3,3.3c0.1,1.1,0.1,2.1,0,3c0,0.4,0,0.9-0.1,1.2
			c-0.1,0.4-0.1,0.7-0.2,1c-0.2,0.6-0.3,0.9-0.3,0.9l-2.7-1.3c0,0,0.1-0.2,0.3-0.5c0.1-0.1,0.2-0.4,0.3-0.7c0.1-0.3,0.2-0.6,0.3-1
			c0.2-0.7,0.3-1.7,0.4-2.7c0.1-1,0.2-2.1,0.2-3.2C96.8,130.2,96.6,125.7,96.6,125.7z"/>
	</g>
	<g>
		<path fill="#163C47" d="M84.7,134.7c0,0,0-0.3,0-0.8c0-0.5,0-1.3,0-2.2c0-0.9-0.1-1.9-0.2-3c-0.1-0.5-0.1-1.1-0.3-1.7
			c-0.1-0.6-0.3-1.1-0.5-1.6c-0.2-0.5-0.4-1.2-0.6-1.7c-0.2-0.6-0.3-1.2-0.4-1.7c-0.2-1.1-0.4-2.2-0.5-3.1c-0.1-0.9-0.1-1.7-0.1-2.2
			c0-0.5,0-0.8,0-0.8s0.3,1.2,0.7,2.9c0.2,0.9,0.5,1.9,0.8,2.9c0.1,0.5,0.3,1.1,0.5,1.6c0.2,0.6,0.4,1.1,0.6,1.6
			c0.2,0.6,0.4,1.2,0.5,1.8c0.1,0.6,0.2,1.2,0.2,1.8c0.1,1.1,0,2.2-0.1,3.1C85,133.5,84.7,134.7,84.7,134.7z"/>
	</g>
	<g>
		<path fill="#163C47" d="M84.7,134.7c0,0,0-0.3,0-0.8c0-0.5,0-1.3,0-2.2c0-0.9-0.1-1.9-0.2-3c-0.1-0.5-0.1-1.1-0.3-1.7
			c-0.1-0.6-0.3-1.1-0.5-1.6c-0.2-0.6-0.4-1.3-0.4-1.9c0-0.6,0-1.2,0-1.8c0.1-1.2,0.3-2.2,0.6-3.1c0.5-1.8,1-2.8,1-2.8
			s-0.1,0.3-0.1,0.8c-0.1,0.5-0.2,1.3-0.3,2.1c-0.1,0.9-0.2,1.9-0.3,3c0,1.1,0,2.3,0.4,3.3c0.2,0.5,0.4,1.2,0.5,1.8
			c0.1,0.6,0.2,1.2,0.2,1.8c0.1,1.2,0,2.2-0.1,3.1C85,133.5,84.7,134.7,84.7,134.7z"/>
	</g>
	<g>
		<path fill="#163C47" d="M96.6,119c0,0,1,1.3,2.2,3.5c0.6,1.1,1.2,2.4,1.6,4c0.2,0.8,0.2,1.6,0.2,2.4c0.1,0.8,0.2,1.6,0.4,2.4
			c0.4,1.6,0.9,3.1,1.5,4.5l0.2,0.5l0.3,0.4c0.2,0.3,0.4,0.6,0.6,0.9c0.4,0.6,0.7,1.2,1.1,1.7c0.7,1,1.3,1.8,1.7,2.3
			c0.1,0.1,0.2,0.2,0.3,0.3c0.1,0.1,0.1,0.1,0.2,0.2c0,0,0,0,0,0l-0.8,1.8c0,0-0.2-0.1-0.5-0.3c-0.1-0.1-0.2-0.2-0.3-0.3
			c-0.1-0.1-0.2-0.3-0.4-0.4c-0.5-0.6-1-1.5-1.7-2.7c-0.3-0.6-0.6-1.2-1-1.8c-0.2-0.3-0.3-0.7-0.5-1c-0.1-0.2-0.2-0.4-0.3-0.6
			c-0.1-0.2-0.1-0.4-0.2-0.6c-0.5-1.5-1-3.1-1.2-4.8c-0.1-0.8-0.2-1.7-0.2-2.5c0-0.8,0.1-1.6-0.1-2.3c-0.2-1.5-0.8-2.8-1.3-4
			C97.5,120.3,96.6,119,96.6,119z"/>
	</g>
	<g>
		<path fill="#163C47" d="M81.5,143.3c0,0,0.1,0,0.2,0c0.1,0,0.3,0,0.5,0c0.4,0,1.1-0.1,1.8-0.3c0.4-0.1,0.7-0.2,1.1-0.4
			c0.3-0.2,0.7-0.4,0.8-0.6l0.2-0.4l0.1-0.3c0.1-0.2,0.1-0.5,0.2-0.7c0.1-0.5,0.2-1,0.2-1.6c0.1-1.1,0.1-2.2,0.1-3.2
			c0-0.3,0-0.5,0-0.7c0-0.2-0.1-0.5-0.1-0.7c0-0.5,0-0.9,0-1.3c0-0.8,0-1.5,0.1-2c0-0.2,0.1-0.4,0.1-0.6c0-0.1,0.1-0.2,0.1-0.2
			s0,0.1,0,0.2c0,0.1,0,0.3,0,0.6c0,0.5,0.1,1.2,0.2,2c0,0.4,0.1,0.8,0.2,1.3c0,0.2,0.1,0.4,0.2,0.7c0.1,0.3,0.1,0.5,0.1,0.8
			c0.1,1,0.2,2.1,0.2,3.3c0,0.6,0,1.1-0.1,1.7c0,0.3-0.1,0.6-0.1,0.9l-0.1,0.5l-0.1,0.4c-0.3,0.8-0.8,1.1-1.3,1.4
			c-0.5,0.3-0.9,0.5-1.3,0.7c-0.8,0.3-1.6,0.5-2.1,0.6c-0.3,0-0.5,0.1-0.6,0.1c-0.1,0-0.2,0-0.2,0c-0.5,0.1-1.1-0.3-1.1-0.9
			c-0.1-0.5,0.3-1.1,0.9-1.1C81.4,143.3,81.4,143.3,81.5,143.3L81.5,143.3z"/>
	</g>
	<g>
		<path fill="#163C47" d="M91.3,134.7c0,0,0-0.4,0-1.2c0-0.8-0.1-1.8-0.2-3.1c-0.1-0.6-0.2-1.3-0.3-2c-0.2-0.7-0.6-1.3-0.9-2
			c-0.8-1.4-1.7-2.9-2.5-4.4c-0.4-0.8-0.8-1.6-1.1-2.4c-0.1-0.4-0.3-0.9-0.3-1.3c-0.1-0.4-0.1-0.9-0.1-1.3c-0.1-1.6-0.1-3.1-0.2-4.4
			c-0.1-1.3-0.2-2.4-0.3-3.1c-0.2-0.7-0.3-1.1-0.3-1.1s0.1,0.1,0.2,0.3c0.1,0.2,0.2,0.4,0.4,0.8c0.3,0.7,0.5,1.8,0.7,3.1
			c0.2,1.3,0.4,2.8,0.5,4.4c0.1,0.8,0.2,1.6,0.4,2.3c0.3,0.8,0.6,1.5,1,2.3c0.8,1.5,1.6,3,2.4,4.5c0.4,0.7,0.7,1.5,0.9,2.3
			c0.1,0.8,0.2,1.5,0.2,2.1c0,1.3-0.1,2.4-0.2,3.1C91.3,134.3,91.3,134.7,91.3,134.7z"/>
	</g>
	<g>
		<path fill="#163C47" d="M94.1,129.6c0,0-0.1-0.4-0.3-1.2c-0.2-0.8-0.4-1.9-0.7-3.2c-0.3-1.3-0.6-2.8-1-4.5
			c-0.2-0.8-0.4-1.7-0.6-2.5c-0.2-0.8-0.4-1.7-0.7-2.5c-0.2-0.7-0.8-1.4-1.3-2.2c-0.5-0.7-0.9-1.5-1.3-2.3c-0.8-1.5-1.4-3-1.8-4.3
			c-0.4-1.3-0.5-2.5-0.5-3.2c0-0.4,0-0.7,0-0.9c0-0.2,0-0.3,0-0.3s0.1,0.4,0.2,1.2c0.1,0.4,0.2,0.8,0.3,1.4c0.1,0.5,0.3,1.1,0.6,1.7
			c0.5,1.2,1.1,2.6,2,4.1c0.4,0.7,0.9,1.4,1.4,2.2c0.5,0.7,1.1,1.4,1.4,2.4c0.3,0.9,0.5,1.8,0.7,2.6c0.2,0.9,0.3,1.7,0.5,2.6
			c0.3,1.7,0.5,3.2,0.6,4.6c0.2,1.3,0.2,2.5,0.3,3.2C94.1,129.2,94.1,129.6,94.1,129.6z"/>
	</g>
	<g>
		<g>
			<circle fill="#163C47" cx="7.9" cy="103.6" r="4.9"/>
			<circle fill="#163C47" cx="9.8" cy="110.8" r="4.9"/>
			<circle fill="#163C47" cx="31.9" cy="114.4" r="4.9"/>
			<circle fill="#163C47" cx="34.3" cy="109.5" r="4.9"/>
			<circle fill="#163C47" cx="27.4" cy="112.5" r="4.9"/>
			<circle fill="#163C47" cx="16" cy="98.7" r="4.9"/>
			<circle fill="#163C47" cx="18.5" cy="95.3" r="4.9"/>
			<circle fill="#163C47" cx="16" cy="74.5" r="4.9"/>
			<circle fill="#163C47" cx="23.3" cy="70.7" r="4.9"/>
			<circle fill="#163C47" cx="22.5" cy="63" r="4.9"/>
			<circle fill="#163C47" cx="41" cy="45.3" r="4.9"/>
			<circle fill="#163C47" cx="45.2" cy="51" r="4.9"/>
			<circle fill="#163C47" cx="52.7" cy="51" r="4.9"/>
			<circle fill="#163C47" cx="20.5" cy="52.2" r="4.9"/>
			<circle fill="#163C47" cx="37.1" cy="50.1" r="4.9"/>
			<circle fill="#163C47" cx="45.2" cy="34.6" r="4.9"/>
			<circle fill="#163C47" cx="53.3" cy="32.7" r="4.9"/>
			<circle fill="#163C47" cx="63" cy="20.5" r="4.9"/>
			<circle fill="#163C47" cx="85.9" cy="9.9" r="4.9"/>
			<circle fill="#163C47" cx="105.9" cy="11.8" r="4.9"/>
			<circle fill="#163C47" cx="115.6" cy="20.5" r="4.9"/>
			<circle fill="#163C47" cx="123.6" cy="24.4" r="4.9"/>
			<circle fill="#163C47" cx="123.6" cy="40.4" r="4.9"/>
			<circle fill="#163C47" cx="129.5" cy="46.1" r="4.9"/>
			<circle fill="#163C47" cx="136.8" cy="46.1" r="4.9"/>
			<circle fill="#163C47" cx="142.6" cy="63.3" r="4.9"/>
			<circle fill="#163C47" cx="150.9" cy="70" r="4.9"/>
			<circle fill="#163C47" cx="146.1" cy="77.4" r="4.9"/>
			<circle fill="#163C47" cx="150.2" cy="85.5" r="4.9"/>
			<circle fill="#163C47" cx="153.7" cy="84.2" r="4.9"/>
			<circle fill="#163C47" cx="163.4" cy="84.8" r="4.9"/>
			<circle fill="#163C47" cx="167.6" cy="98.8" r="4.9"/>
			<circle fill="#163C47" cx="164" cy="104.6" r="4.9"/>
			<circle fill="#163C47" cx="154.6" cy="104.6" r="4.9"/>
			<circle fill="#163C47" cx="150.2" cy="105.5" r="4.9"/>
			<circle fill="#163C47" cx="134.4" cy="108.5" r="4.9"/>
			<circle fill="#163C47" cx="126.9" cy="105.5" r="4.9"/>
			<circle fill="#163C47" cx="120.7" cy="107.8" r="4.9"/>
			<circle fill="#163C47" cx="114.1" cy="107.4" r="4.9"/>
			<circle fill="#163C47" cx="108.5" cy="106.7" r="4.9"/>
			<circle fill="#163C47" cx="106.3" cy="107.4" r="4.9"/>
			<circle fill="#163C47" cx="98.8" cy="108.5" r="4.9"/>
			<circle fill="#163C47" cx="96.6" cy="107.8" r="4.9"/>
			<circle fill="#163C47" cx="94.6" cy="103.6" r="4.9"/>
			<circle fill="#163C47" cx="93.9" cy="99.3" r="4.9"/>
			<circle fill="#163C47" cx="89.1" cy="93.9" r="4.9"/>
			<circle fill="#163C47" cx="86.4" cy="89.1" r="4.9"/>
			<circle fill="#163C47" cx="78.7" cy="89.1" r="4.9"/>
			<circle fill="#163C47" cx="51.6" cy="102.5" r="4.9"/>
			<circle fill="#163C47" cx="57.6" cy="97.6" r="4.9"/>
			<circle fill="#163C47" cx="141.2" cy="47.3" r="4.9"/>
			<circle fill="#163C47" cx="99.1" cy="8.8" r="4.9"/>
			<circle fill="#163C47" cx="76.7" cy="8.8" r="4.9"/>
			<circle fill="#163C47" cx="64.2" cy="14.2" r="4.9"/>
			<circle fill="#163C47" cx="16" cy="86.1" r="4.9"/>
			<circle fill="#163C47" cx="11.7" cy="80.4" r="4.9"/>
			<circle fill="#163C47" cx="7.4" cy="74.9" r="4.9"/>
			<circle fill="#163C47" cx="3" cy="76.8" r="3"/>
			<circle fill="#163C47" cx="16" cy="65.8" r="3"/>
			<circle fill="#163C47" cx="10.9" cy="66.6" r="3"/>
			<circle fill="#163C47" cx="8.8" cy="63" r="3"/>
			<circle fill="#163C47" cx="7.4" cy="61.1" r="3"/>
			<circle fill="#163C47" cx="10.4" cy="58.1" r="3"/>
			<circle fill="#163C47" cx="14.7" cy="55.2" r="3"/>
			<circle fill="#163C47" cx="86.7" cy="3.9" r="3"/>
			<circle fill="#163C47" cx="3.9" cy="62.8" r="2.1"/>
			<circle fill="#163C47" cx="130.6" cy="42" r="2.1"/>
			<circle fill="#163C47" cx="146.7" cy="66.1" r="2.1"/>
			<circle fill="#163C47" cx="155.8" cy="71.7" r="2.1"/>
			<circle fill="#163C47" cx="166.8" cy="88.2" r="2.1"/>
			<circle fill="#163C47" cx="166.2" cy="91.8" r="2.1"/>
			<circle fill="#163C47" cx="73.8" cy="92.8" r="2.1"/>
			<circle fill="#163C47" cx="168.9" cy="93.1" r="2.1"/>
			<circle fill="#163C47" cx="151.8" cy="73.8" r="2.1"/>
			<circle fill="#163C47" cx="44.7" cy="106.5" r="6.9"/>
			<circle fill="#163C47" cx="67.4" cy="94.4" r="6.9"/>
			<circle fill="#163C47" cx="28.2" cy="50.1" r="6.9"/>
			<circle fill="#163C47" cx="54" cy="40.4" r="6.9"/>
			<circle fill="#163C47" cx="67.9" cy="9.9" r="6.9"/>
			<circle fill="#163C47" cx="95" cy="6.9" r="6.9"/>
			<circle fill="#163C47" cx="113.6" cy="15.7" r="6.9"/>
			<circle fill="#163C47" cx="121.6" cy="33.5" r="6.9"/>
			<circle fill="#163C47" cx="143.3" cy="54.8" r="6.9"/>
			<circle fill="#163C47" cx="144" cy="111.5" r="6.9"/>
			<circle fill="#163C47" cx="55.3" cy="23.5" r="6.9"/>
			<circle fill="#163C47" cx="20.5" cy="112.1" r="6.9"/>
		</g>
		<path fill="#163C47" d="M6,60.7l4.4-3.7l4.3-1.2l6.6-3.7l8.7-2l9.2,0l8.7,0.9l3.8-0.9l1.1-11.2l-1.1-9.6l3.7-4.9l7.7-4.9l1.2-5.9
			l6.1-2.7l8.4-1h8.9l5.1-1.2l6.8,1.2l7.2,1.8l5.7,3.9l3.4,3.4l2.9,2.2l2.5,1.3l-0.8,5.3l0.8,4.9v4.2l2.3,4.4l5.2,1.9l4.9,2l2.8,0.9
			l4.7,4l0.5,3.3l-0.5,5.1l1.4,4.9l2.7,2.7l4.4,2.8v2.9l-3,4.2v4l0.7,2.3l4.4,1.9h6.7l2.6,1.8l3.7,1.5l1.4,0.7v3.6l2.8,1.3l-0.6,4.6
			l-2.7,4.2l-2.8,2.8l-7.7,0.9l-4.9,1l-3.4,3l-10.4-1.1l-5.8-1.1l-5.9-2.7l-5.7,2.7h-4.9c0,0-0.9,0-2.9,0c-2,0-7.6,0.5-7.6,0.5h-6.2
			l-4.1-2.7l-1-7.6l1-5.8L87,89.1l-9.2-1.6l-1.9,3.4l-1.8,1.8l-6.7,1.7L61,96.1l-6.3,2.6l-6.2,4.3l-6.4,3.7l-5.8,2.8l-4.3,2h-6.5
			l-8.8-0.8l-6.2-1.3l-1.6-5.9l4.8-3.4l5.9-4.9l-1.8-7.8l-3.8-6.3l-2.7-3.8l2.2-4.9l12-2.5l1.7-1.8l-4.5-4.6h-4.5l-2,2.2h-4.9
			L6,60.7z"/>
	</g>
	<g>
		<path fill="#163C47" d="M55.9,103.2c0,0,0.7,0.1,1.9,0.3c1.1,0.1,2.7,0.2,4.2,0.2c1.5,0,3.1-0.1,4.2-0.3c0.6-0.1,1-0.2,1.4-0.2
			C67.8,103,68,103,68,103s-0.2,0.1-0.5,0.1c-0.3,0.1-0.8,0.2-1.3,0.4c-1.1,0.3-2.7,0.5-4.2,0.7c-1.5,0.1-3.1,0.2-4.3,0.1
			c-1.2,0-2-0.1-2-0.1l0,0c-0.3,0-0.5-0.3-0.4-0.6C55.3,103.3,55.6,103.1,55.9,103.2C55.9,103.1,55.9,103.2,55.9,103.2z"/>
	</g>
	<g>
		<path fill="#163C47" d="M69.6,104.4c0,0,0.1,0,0.4,0c0.2,0,0.6,0,1,0c0.8,0,1.9,0,3,0.1c0.5,0.1,1.1,0.2,1.6,0.3
			c0.3,0.1,0.5,0.2,0.7,0.2c0.2,0.1,0.4,0.2,0.6,0.3c0.2,0.1,0.3,0.2,0.4,0.4c0.1,0.1,0.2,0.2,0.2,0.4c0.1,0.2,0.1,0.3,0.1,0.3
			s-0.1-0.1-0.2-0.3c-0.1-0.1-0.2-0.1-0.3-0.2c-0.1-0.1-0.3-0.1-0.5-0.2c-0.2-0.1-0.4,0-0.6-0.1c-0.2,0-0.4,0-0.7,0
			c-0.5,0.1-0.9,0.1-1.4,0.3c-1,0.2-1.9,0.6-2.6,0.8c-0.3,0.1-0.6,0.3-0.8,0.3c-0.2,0.1-0.3,0.1-0.3,0.1c-0.8,0.3-1.7,0-2-0.8
			c-0.3-0.8,0-1.7,0.8-2C69.2,104.5,69.4,104.5,69.6,104.4L69.6,104.4z"/>
	</g>
</g>
</svg>
