<?xml version="1.0" encoding="utf-8"?>
<!-- Generator: Adobe Illustrator 18.1.1, SVG Export Plug-In . SVG Version: 6.00 Build 0)  -->
<svg version="1.1" id="Layer_1" xmlns="http://www.w3.org/2000/svg" xmlns:xlink="http://www.w3.org/1999/xlink" x="0px" y="0px"
	 viewBox="0 0 137.1 104.4" enable-background="new 0 0 137.1 104.4" xml:space="preserve">
<g>
	<path fill="none" stroke="#163C47" stroke-width="3" stroke-linecap="round" stroke-linejoin="round" stroke-miterlimit="1" d="
		M127.8,1.5L73.7,6.1c0,0-4.1,0.4-5.2,3.7c-1.6-3.3-4.8-3.7-4.8-3.7L15.4,2"/>
	<path fill="none" stroke="#163C47" stroke-width="3" stroke-linecap="round" stroke-linejoin="round" stroke-miterlimit="1" d="
		M127.8,88.3l-54.1,4.6c0,0-4.1,0.4-5.2,3.7c-1.6-3.3-4.8-3.7-4.8-3.7L9.2,88.8"/>
	
		<line fill="none" stroke="#163C47" stroke-width="3" stroke-linecap="round" stroke-linejoin="round" stroke-miterlimit="1" x1="127.8" y1="88.2" x2="127.8" y2="1.5"/>
	
		<line fill="none" stroke="#163C47" stroke-width="3" stroke-linecap="round" stroke-linejoin="round" stroke-miterlimit="1" x1="9.2" y1="9.9" x2="9.2" y2="88.2"/>
	<g>
		<polygon fill="#163C47" points="67.5,96.7 68.5,53.1 69.5,96.7 		"/>
	</g>
	<g>
		
			<polyline fill="none" stroke="#163C47" stroke-width="2" stroke-linecap="round" stroke-linejoin="round" stroke-miterlimit="1" points="
			62.7,13.8 29.6,10.9 16.8,9.9 		"/>
		
			<line fill="none" stroke="#163C47" stroke-width="2" stroke-linecap="round" stroke-linejoin="round" stroke-miterlimit="1" x1="16.8" y1="16.2" x2="62.7" y2="20.1"/>
		
			<line fill="none" stroke="#163C47" stroke-width="2" stroke-linecap="round" stroke-linejoin="round" stroke-miterlimit="1" x1="16.8" y1="22.5" x2="62.7" y2="26.4"/>
		
			<line fill="none" stroke="#163C47" stroke-width="2" stroke-linecap="round" stroke-linejoin="round" stroke-miterlimit="1" x1="16.8" y1="28.8" x2="62.7" y2="32.8"/>
		
			<line fill="none" stroke="#163C47" stroke-width="2" stroke-linecap="round" stroke-linejoin="round" stroke-miterlimit="1" x1="16.8" y1="35.2" x2="62.7" y2="39.1"/>
		
			<line fill="none" stroke="#163C47" stroke-width="2" stroke-linecap="round" stroke-linejoin="round" stroke-miterlimit="1" x1="16.8" y1="41.5" x2="62.7" y2="45.4"/>
		
			<line fill="none" stroke="#163C47" stroke-width="2" stroke-linecap="round" stroke-linejoin="round" stroke-miterlimit="1" x1="16.8" y1="47.8" x2="62.7" y2="51.7"/>
		
			<line fill="none" stroke="#163C47" stroke-width="2" stroke-linecap="round" stroke-linejoin="round" stroke-miterlimit="1" x1="16.8" y1="54.1" x2="62.7" y2="58.1"/>
		
			<line fill="none" stroke="#163C47" stroke-width="2" stroke-linecap="round" stroke-linejoin="round" stroke-miterlimit="1" x1="16.8" y1="60.5" x2="62.7" y2="64.4"/>
		
			<line fill="none" stroke="#163C47" stroke-width="2" stroke-linecap="round" stroke-linejoin="round" stroke-miterlimit="1" x1="16.8" y1="66.8" x2="62.7" y2="70.7"/>
		
			<line fill="none" stroke="#163C47" stroke-width="2" stroke-linecap="round" stroke-linejoin="round" stroke-miterlimit="1" x1="16.8" y1="73.1" x2="62.7" y2="77"/>
		
			<line fill="none" stroke="#163C47" stroke-width="2" stroke-linecap="round" stroke-linejoin="round" stroke-miterlimit="1" x1="16.8" y1="79.4" x2="62.7" y2="83.4"/>
	</g>
	<g>
		
			<line fill="none" stroke="#163C47" stroke-width="2" stroke-linecap="round" stroke-linejoin="round" stroke-miterlimit="1" x1="120.5" y1="9.9" x2="74.6" y2="13.8"/>
		
			<line fill="none" stroke="#163C47" stroke-width="2" stroke-linecap="round" stroke-linejoin="round" stroke-miterlimit="1" x1="120.5" y1="16.2" x2="74.6" y2="20.1"/>
		
			<line fill="none" stroke="#163C47" stroke-width="2" stroke-linecap="round" stroke-linejoin="round" stroke-miterlimit="1" x1="120.5" y1="22.5" x2="74.6" y2="26.4"/>
		
			<line fill="none" stroke="#163C47" stroke-width="2" stroke-linecap="round" stroke-linejoin="round" stroke-miterlimit="1" x1="120.5" y1="28.8" x2="74.6" y2="32.8"/>
		
			<line fill="none" stroke="#163C47" stroke-width="2" stroke-linecap="round" stroke-linejoin="round" stroke-miterlimit="1" x1="120.5" y1="35.2" x2="74.6" y2="39.1"/>
		
			<line fill="none" stroke="#163C47" stroke-width="2" stroke-linecap="round" stroke-linejoin="round" stroke-miterlimit="1" x1="120.5" y1="41.5" x2="74.6" y2="45.4"/>
		
			<line fill="none" stroke="#163C47" stroke-width="2" stroke-linecap="round" stroke-linejoin="round" stroke-miterlimit="1" x1="120.5" y1="47.8" x2="74.6" y2="51.7"/>
		
			<line fill="none" stroke="#163C47" stroke-width="2" stroke-linecap="round" stroke-linejoin="round" stroke-miterlimit="1" x1="120.5" y1="54.1" x2="74.6" y2="58.1"/>
		
			<line fill="none" stroke="#163C47" stroke-width="2" stroke-linecap="round" stroke-linejoin="round" stroke-miterlimit="1" x1="120.5" y1="60.5" x2="74.6" y2="64.4"/>
		
			<line fill="none" stroke="#163C47" stroke-width="2" stroke-linecap="round" stroke-linejoin="round" stroke-miterlimit="1" x1="120.5" y1="66.8" x2="74.6" y2="70.7"/>
		
			<line fill="none" stroke="#163C47" stroke-width="2" stroke-linecap="round" stroke-linejoin="round" stroke-miterlimit="1" x1="120.5" y1="73.1" x2="74.6" y2="77"/>
		
			<line fill="none" stroke="#163C47" stroke-width="2" stroke-linecap="round" stroke-linejoin="round" stroke-miterlimit="1" x1="120.5" y1="79.4" x2="74.6" y2="83.4"/>
	</g>
	<path fill="none" stroke="#163C47" stroke-width="3" stroke-linecap="round" stroke-linejoin="round" stroke-miterlimit="1" d="
		M15.4,2c-1.6,3.1-6.3,7.8-6.3,7.8l10.8-3.3L15.4,2"/>
	<path fill="none" stroke="#163C47" stroke-width="3" stroke-linecap="round" stroke-linejoin="round" stroke-miterlimit="1" d="
		M11.8,6.6H4.9c0,0-3.4,0.2-3.4,4.3c0,0,0.7,8.8,0.7,11.6c0,2.7-0.7,73.9-0.7,73.9s0.1,2.2,4.4,2.2s42-0.5,42-0.5l10.6,0.5
		c0,0,3.3,4.7,10,4.2c6.7-0.5,8.9-3.3,9.6-4.2c0.7-0.9,8.7-1,10-0.5s45.5,0,45.5,0s1.9,1.3,1.9-1.1c0-2.4-0.8-61.9-0.8-61.9
		s0-25.6,0.8-27.1c0.8-1.5-5.5-2.8-6.6-2.1"/>
	<path fill="none" stroke="#163C47" stroke-width="3" stroke-linecap="round" stroke-linejoin="round" stroke-miterlimit="1" d="
		M11.1,89l0.5,3.8c0,0,54.8-0.3,56.9,2.1"/>
	<path fill="none" stroke="#163C47" stroke-width="3" stroke-linecap="round" stroke-linejoin="round" stroke-miterlimit="1" d="
		M126.3,88.8l-0.5,3.8c0,0-54.8-0.3-56.9,2.1"/>
	<g>
		<path fill="#163C47" d="M70,9.9l-1.5,10.2L67,9.9c-0.1-0.8,0.5-1.6,1.3-1.7C69.1,8,69.9,8.6,70,9.4C70,9.6,70,9.7,70,9.9z"/>
	</g>
</g>
</svg>
