<?xml version="1.0" encoding="utf-8"?>
<!-- Generator: Adobe Illustrator 18.1.1, SVG Export Plug-In . SVG Version: 6.00 Build 0)  -->
<svg version="1.1" id="Layer_1" xmlns="http://www.w3.org/2000/svg" xmlns:xlink="http://www.w3.org/1999/xlink" x="0px" y="0px"
	 viewBox="0 0 130.1 90.8" enable-background="new 0 0 130.1 90.8" xml:space="preserve">
<g>
	<g>
		<path fill="none" stroke="#163C47" stroke-width="3" stroke-miterlimit="1" d="M14.7,51.6c0,0-6.2-4-7.2-4s-10.8-3.4-2.8-20.8
			c0,0,2.7-4.2,3.4-6.8C8.9,17.5,42,2.3,54.2,2.3s34-2.8,40.1,2c0,0,22.4,4.8,26.4,10.4c0,0,17.8,11.8,0,33.6c0,0-7.2,6.6-11.6,7
			s-10.4,4.6-10.4,4.6s-7.2,0.6-17.4,0.9c-4.8,0.1-10.3,0.2-16,0.1c0,0-3.7-1.7-8.7,0.1c0,0-7.8,1.1-8.6,0l15.4-28
			c0,0-1.8-1-4.4,0.4C56.4,34.7,14.7,51.6,14.7,51.6z"/>
		<path fill="none" stroke="#163C47" stroke-width="3" stroke-miterlimit="1" d="M1.6,37.5L1.5,65.8c0,0,4.8,8.6,8.4,10.6
			s9.1,0,9.1,0L47.8,65"/>
		<path fill="none" stroke="#163C47" stroke-width="3" stroke-miterlimit="1" d="M48.3,60.2l-0.8,28c0,0,5.1-0.4,5.7,0
			s4.4,1.4,6,0.5c1.6-0.9,17.4-0.1,17.4-0.1s7.2-0.2,7.9,0.5c0.7,0.6,15.7,0,15.7,0s11.2-2.2,14.8-8.6c0,0,3.3-3.6,6.1-4.6
			c0,0,1.4-1.3,1.7-5.5c0,0,4.6-4.4,5.6-10.2V29.6"/>
	</g>
	<path fill="none" stroke="#163C47" stroke-width="2" stroke-miterlimit="1" d="M6.4,73.1c0,0,0.5-8,0-11.7
		c-0.5-3.7-0.4-12.9,0-14.1"/>
	<path fill="none" stroke="#163C47" stroke-width="3" stroke-miterlimit="1" d="M13.9,77.3c0,0,0.7-2.7,0.7-5.7S13.5,57,13.9,56
		c0.4-1,0.7-4.3,0.7-4.3"/>
	<g>
		<path fill="#163C47" d="M7.8,75.3c0,0,0.3-0.9,0.7-2.3c0.4-1.4,0.9-3.2,1.2-5.2c0.3-1.9,0.5-3.8,0.5-5.3c0-0.7,0-1.3,0-1.8
			c0-0.4,0-0.7,0-0.7s0,0.2,0.1,0.7c0.1,0.4,0.2,1,0.2,1.8c0.2,1.5,0.2,3.4,0.2,5.4c-0.1,2-0.3,3.9-0.5,5.4
			c-0.2,1.5-0.5,2.5-0.5,2.5L7.8,75.3z"/>
	</g>
	<g>
		<path fill="#163C47" d="M95.2,4.8c0,0-0.7,0.8-1.5,1.6c-0.4,0.4-0.7,0.8-1,1c-0.1,0.1-0.3,0.2-0.4,0.3c-0.1,0.1-0.2,0.1-0.2,0.1
			s0-0.1,0.1-0.1c0.1-0.1,0.1-0.2,0.2-0.4c0.2-0.4,0.3-0.8,0.5-1.3c0.3-1,0.7-2,0.7-2L95.2,4.8z"/>
	</g>
	<g>
		<path fill="#163C47" d="M10.1,18.9c0,0,0,0,0.1,0.1c0.1,0.1,0.2,0.2,0.3,0.3c0.3,0.3,0.7,0.6,1.2,0.9c1,0.6,2.2,0.8,2.2,0.8
			s-1.2,0.3-2.5,0c-0.6-0.1-1.3-0.3-1.7-0.5c-0.2-0.1-0.4-0.2-0.6-0.3c-0.1-0.1-0.2-0.1-0.2-0.1L10.1,18.9z"/>
	</g>
	<path fill="none" stroke="#163C47" stroke-width="2" stroke-miterlimit="1" d="M56.1,89c0,0,0.8-7.5,0.8-9.5s-0.3-2.5-1-6.3
		c-0.7-3.7-0.5-11.8-0.5-11.8"/>
	<path fill="none" stroke="#163C47" stroke-width="2" stroke-miterlimit="1" d="M65.3,60.8c0,0-2.1,13.8-2,16.5c0.1,2.7,1.4,11,1,11
		"/>
	<g>
		<path fill="#163C47" d="M55,60.9c0,0,0.1-0.4,0.2-0.9c0.1-0.5,0.3-1.2,0.4-1.8c0.2-0.7,0.5-1.3,0.7-1.7c0.1-0.1,0.1-0.2,0.2-0.3
			c0.1-0.1,0.1-0.2,0.2-0.2c0.1-0.1,0.2-0.1,0.2-0.1s-0.2,0.3-0.3,0.7c-0.1,0.5-0.1,1.1,0,1.7c0.1,0.6,0.2,1.3,0.2,1.7
			c0.1,0.5,0.2,0.8,0.2,0.8L55,60.9z"/>
	</g>
	<path fill="none" stroke="#163C47" stroke-width="2" stroke-miterlimit="1" d="M61.7,36.1c9.7-0.3,9.3-4.8,9.5-6.6
		c0.1-1.8-8.1-2.1-11.2-2.3c-3.1-0.2-9,1.5-9.9,4.3s6,3.2,6,3.2s0,8.6-0.3,10.1"/>
	<path fill="none" stroke="#163C47" stroke-width="2" stroke-miterlimit="1" d="M60.6,38.9c5.8-0.9,5.6,2.7,14.4-3.8
		c6.2-4.6,3.7-7.3,2.8-9.1c-0.9-1.8-9.5-3.2-21.1-2.5S43.8,30,43.7,33.2c-0.1,2.4,6.3,3.7,6.3,3.7s0.1,8.1,0,9.9
		c-0.1,1.8,0.6,6.3,1.5,8"/>
	<path fill="none" stroke="#163C47" stroke-width="2" stroke-miterlimit="1" d="M44,39.6c0,0-25.4-5.5-10.1-13.2s22.3-12,40.5-8.8
		s16.9,11.5,15.1,12.6c-1.8,1.2-4.5,9-10.4,10.4s-13.9,4.2-20.6,1.2"/>
	<path fill="none" stroke="#163C47" stroke-width="2" stroke-miterlimit="1" d="M37.5,42.3c0,0-11.6-0.8-14.3-3.2
		c-2.7-2.4-5.8-7.6,0-11.9S46,11.8,63.4,13s33.3,1.9,36.9,5.7s5.5,35.1-43.3,26.3"/>
	<path fill="none" stroke="#163C47" stroke-width="2" stroke-miterlimit="1" d="M53.3,51.3c23.1,4.9,41.9-4,50.2-6.2
		c8.3-2.3,11.4-15.1,9.6-22.8c-1.7-7.7-7.3-7.6-30.2-13.4S30.1,16,22.5,19.6s-8.7,10.6-10.8,16.5s12.9,10.7,12.9,10.7s0.8,7.4,0,9.1
		s0.8,9.8,0.8,9.8s0.3,6.3,0,7.8"/>
	<g>
		<path fill="#163C47" d="M109.4,56c0,0-1.5-0.8-3.8-2c-2.3-1.2-5.3-2.9-8.2-4.6C96.7,49,96,48.5,95.3,48c-0.7-0.5-1.4-0.9-2-1.5
			c-0.6-0.6-1-1.2-1.5-1.7c-0.5-0.5-1-1-1.5-1.4c-1-0.8-1.9-1.4-2.5-1.7c-0.3-0.2-0.6-0.3-0.8-0.3c-0.2-0.1-0.3-0.1-0.3-0.1
			s0.1,0,0.3,0.1c0.2,0,0.5,0.1,0.8,0.3c0.7,0.3,1.6,0.8,2.7,1.6c0.5,0.4,1.1,0.8,1.6,1.3c0.6,0.5,1.1,1.1,1.7,1.6
			c0.6,0.5,1.3,0.9,2,1.3c0.7,0.4,1.5,0.8,2.2,1.2c3,1.5,6.1,2.9,8.5,4c2.3,1,3.9,1.7,3.9,1.7L109.4,56z"/>
	</g>
	<path fill="none" stroke="#163C47" stroke-width="3" stroke-miterlimit="1" d="M111.2,84.5c0,0-1.3-15.5-1.4-17.6
		c0-2.1,1.7-10.1,1.4-11.8"/>
	<path fill="none" stroke="#163C47" stroke-width="2" stroke-miterlimit="1" d="M42.9,40.1c0,0,0.5,12.9,0,14.2
		c-0.5,1.3,0,12.6-0.4,12.7"/>
	<g>
		<path fill="#163C47" d="M36.9,42.9c0,0,0,1.2,0,2.9c0,0.9,0,1.9-0.1,3c0,0.5-0.1,1.1-0.2,1.7c-0.1,0.6-0.2,1.2-0.3,1.7
			c-0.2,1.1-0.2,2.2-0.2,3.3c0,1.1,0,2.1,0,2.9c0,0.9,0,1.6,0,2.1c0,0.5,0,0.8,0,0.8s0-0.3-0.1-0.8c-0.1-0.5-0.1-1.2-0.2-2.1
			c-0.1-0.9-0.2-1.9-0.3-3c-0.1-1.1-0.2-2.2-0.1-3.5c0-0.6,0.1-1.1,0.1-1.7c0-0.6,0-1.1,0-1.6c0-1.1-0.1-2.1-0.2-2.9
			c-0.2-1.7-0.3-2.8-0.3-2.8L36.9,42.9z"/>
	</g>
	<path fill="none" stroke="#163C47" stroke-miterlimit="1" d="M33.5,70.6c0,0-0.5-11,0-15.9s-1-9.6-1-10"/>
	<path fill="none" stroke="#163C47" stroke-miterlimit="1" d="M19.2,75.2c0,0,0.4-9,0-10.7s-0.7-14.4,0-14.7"/>
	<path fill="none" stroke="#163C47" stroke-miterlimit="1" d="M58.3,61.4c0,0-0.3,6.9,0,9.3s1.9,14.4,1,18"/>
	<path fill="none" stroke="#163C47" stroke-width="2" stroke-miterlimit="1" d="M84.6,89.1c0,0,0.4-5.7,0-10.9
		c-0.4-5.2-7.4-10.9-7.1-16.8"/>
	<path fill="none" stroke="#163C47" stroke-width="2" stroke-miterlimit="1" d="M84.4,77.3c0,0-0.7-5,0.9-7.5c1.6-2.5,4.2-5.7,4.2-9
		"/>
	<g>
		<path fill="#163C47" d="M89.4,88.5c0,0-0.2-1.3-0.4-3.2c-0.2-1.9-0.5-4.5-0.4-7.2c0-0.7,0-1.3,0.1-2c0.1-0.6,0.3-1.4,0.7-1.9
			c0.8-1,1.5-1.8,2.2-2.5c0.6-0.7,1.1-1.4,1.4-1.9c0.1-0.2,0.2-0.5,0.2-0.6c0-0.1,0.1-0.2,0.1-0.2s0,0.1,0,0.2
			c0,0.1-0.1,0.4-0.2,0.6c-0.2,0.5-0.6,1.2-1.2,2c-0.6,0.8-1.3,1.7-1.9,2.7c-0.3,0.5-0.4,1-0.4,1.6c0,0.6,0,1.2,0,1.9
			c0.2,2.5,0.7,5,1.1,6.9c0.4,1.9,0.7,3.1,0.7,3.1L89.4,88.5z"/>
	</g>
	<path fill="none" stroke="#163C47" stroke-miterlimit="1" d="M77.4,88.3c0,0,0-9.4-0.7-12.7s-3.1-10.8-2.2-14.2"/>
	<g>
		<path fill="#163C47" d="M70.9,61.7c0,0,0,0.1-0.1,0.2c-0.1,0.1-0.2,0.3-0.3,0.6c-0.2,0.5-0.4,1.1-0.6,1.8
			c-0.4,1.4-0.6,2.8-0.6,2.8s-0.3-1.4-0.4-2.9c-0.1-0.7-0.1-1.5,0-2.1c0-0.3,0-0.5,0.1-0.7c0-0.2,0-0.3,0-0.3L70.9,61.7z"/>
	</g>
	<path fill="none" stroke="#163C47" stroke-width="2" stroke-miterlimit="1" d="M99.3,60.9c0,0-1,8.3-1.1,10.4
		c-0.1,2.1-1.9,15.7-3.8,17.4"/>
	<path fill="none" stroke="#163C47" stroke-width="2" stroke-miterlimit="1" d="M98,73.1c0,0-0.1,3.2,2.3,5.6
		c2.4,2.4,2.7,9.6,2.7,9.6"/>
	<path fill="none" stroke="#163C47" stroke-width="2" stroke-miterlimit="1" d="M118.1,77.7c0,0,0.9-9.2,0.7-13.9
		c-0.1-4.7-1.7-10.2-1.3-11.7"/>
	<path fill="none" stroke="#163C47" stroke-width="2" stroke-miterlimit="1" d="M122.9,70.4c0,0,0.5-8.6,0-11s-2.6-10.5-2.1-11.2"/>
</g>
</svg>
