<?xml version="1.0" encoding="utf-8"?>
<!-- Generator: Adobe Illustrator 18.1.1, SVG Export Plug-In . SVG Version: 6.00 Build 0)  -->
<svg version="1.1" id="Layer_1" xmlns="http://www.w3.org/2000/svg" xmlns:xlink="http://www.w3.org/1999/xlink" x="0px" y="0px"
	 viewBox="0 0 200 164.4" enable-background="new 0 0 200 164.4" xml:space="preserve">
<g>
	<g>
		<path fill="#FFFFFF" d="M82.2,106.7c5.1,0,9.9-1.5,14.1-4.4c5-3.5,10.7-5.4,16.7-5.8c-2.1-4.3-3.4-9.2-3.4-14.3
			c0-5.3,1.3-10.4,3.6-14.8c-6.2-0.2-12.2-2.1-17.3-5.5c-4-2.7-8.8-4.2-13.7-4.2c-9.2,0-17.3,5.1-21.5,12.7c-0.6,3.9-1,7.8-1,11.9
			c0,4,0.4,8,1,11.9C64.9,101.6,72.9,106.7,82.2,106.7z"/>
		<path fill="#FFFFFF" d="M132.5,7.6c13.9,9.4,18.3,27.8,10.6,42.3c6,0.2,11.8,2,16.8,5.4c11.4,7.7,26.9,4.7,34.6-6.7
			c7.7-11.4,4.7-26.9-6.7-34.6C174.3,4.9,158.4,0,141.9,0c-6.4,0-12.6,0.8-18.6,2.2C126.5,3.8,129.6,5.6,132.5,7.6z"/>
		<path fill="#FFFFFF" d="M195.2,114.8c-7.9-11.3-23.4-14-34.7-6.1c-4.8,3.4-10.4,5.3-16.2,5.7c3.2,6.3,4.3,13.3,3,20.4
			c-1.5,8.6-6.3,16.1-13.4,21.1c-3.4,2.4-6.9,4.4-10.5,6.3c6,1.4,12.2,2.2,18.6,2.2c17,0,33.3-5.1,47.2-14.9
			C200.4,141.6,203.1,126.1,195.2,114.8z"/>
	</g>
	<path fill="#FFFFFF" d="M82.2,164.4C36.9,164.4,0,127.5,0,82.2C0,36.9,36.9,0,82.2,0c16.5,0,32.4,4.9,46,14
		c11.4,7.7,14.4,23.2,6.7,34.6s-23.2,14.4-34.6,6.7c-5.3-3.6-11.6-5.5-18.1-5.5c-17.9,0-32.4,14.5-32.4,32.4
		c0,17.9,14.5,32.4,32.4,32.4c6.7,0,13.1-2,18.6-5.8c11.3-7.9,26.8-5.2,34.7,6.1c7.9,11.3,5.2,26.8-6.1,34.7
		C115.5,159.2,99.2,164.4,82.2,164.4z"/>
</g>
</svg>
